<svg width="62" height="64" viewBox="0 0 62 64" fill="none" xmlns="http://www.w3.org/2000/svg">
<ellipse cx="31" cy="32" rx="31" ry="32" fill="#1C1C1C"/>
<g clip-path="url(#clip0_46_18)">
<path d="M31.0001 32C36.1369 32 40.3001 27.7025 40.3001 22.4C40.3001 17.0975 36.1369 12.8 31.0001 12.8C25.8633 12.8 21.7001 17.0975 21.7001 22.4C21.7001 27.7025 25.8633 32 31.0001 32ZM37.5101 34.4H36.2967C34.6838 35.165 32.8892 35.6 31.0001 35.6C29.111 35.6 27.3237 35.165 25.7035 34.4H24.4901C19.099 34.4 14.7251 38.915 14.7251 44.48V47.6C14.7251 49.5875 16.2872 51.2 18.2126 51.2H43.7876C45.713 51.2 47.2751 49.5875 47.2751 47.6V44.48C47.2751 38.915 42.9012 34.4 37.5101 34.4Z" fill="white"/>
</g>
<defs>
<clipPath id="clip0_46_18">
<rect width="32.55" height="38.4" fill="white" transform="translate(14.7251 12.8)"/>
</clipPath>
</defs>
</svg>
